 http://www.pix2links.com/images/88942288108863483848.gif
 
http://image.bayimg.com/bakaaaada.jpg

General
Complete name                    :Veteran (2011) 480p DVDRip x264{daremusic}.mp4
Format                           : MPEG-4
Format profile                   : Base Media
Codec ID                         : isom
File size                        : 332 MiB
Duration                         : 1h 34mn
Overall bit rate                 : 493 Kbps
Encoded date                     : UTC 2011-07-20 17:55:24
Tagged date                      : UTC 2011-07-20 17:55:24

Video
ID                               : 1
Format                           : AVC
Format/Info                      : Advanced Video Codec
Format profile                   : High@L3.1
Format settings, CABAC           : Yes
Format settings, ReFrames        : 5 frames
Codec ID                         : avc1
Codec ID/Info                    : Advanced Video Coding
Duration                         : 1h 34mn
Bit rate                         : 450 Kbps
Maximum bit rate                 : 2 685 Kbps
Width                            : 704 pixels
Height                           : 368 pixels
Display aspect ratio             : 1.913
Frame rate mode                  : Constant
Frame rate                       : 25.000 fps
Color space                      : YUV
Chroma subsampling               : 4:2:0
Bit depth                        : 8 bits
Scan type                        : Progressive
Bits/(Pixel*Frame)               : 0.069
Stream size                      : 303 MiB (91%)
Title                            : Imported with GPAC 0.4.6-DEV (internal rev. 5)
Writing library                  : x264 core 115 r1947 b5a8ad7
Encoded date                     : UTC 2011-07-20 17:55:24
Tagged date                      : UTC 2011-07-20 17:56:26

Audio
ID                               : 2
Format                           : AAC
Format/Info                      : Advanced Audio Codec
Format profile                   : HE-AACv2 / HE-AAC / LC
Codec ID                         : 40
Duration                         : 1h 34mn
Bit rate mode                    : Variable
Bit rate                         : 40.0 Kbps
Maximum bit rate                 : 53.0 Kbps
Channel(s)                       : 2 channels / 1 channel / 1 channel
Channel positions                : Front: L R / Front: C / Front: C
Sampling rate                    : 48.0 KHz / 48.0 KHz / 24.0 KHz
Compression mode                 : Lossy
Stream size                      : 26.9 MiB (8%)
Encoded date                     : UTC 2011-07-20 17:56:21
Tagged date                      : UTC 2011-07-20 17:56:26


 
http://image.bayimg.com/bakabaada.jpg 
http://image.bayimg.com/bakacaada.jpg 
http://image.bayimg.com/bakafaada.jpg 
http://image.bayimg.com/bakagaada.jpg



follow us on:-

